<svg xmlns="http://www.w3.org/2000/svg" viewBox="0 0 307 185.38"><title>Asset 2</title><g id="Layer_2" data-name="Layer 2"><g id="main"><path d="M36.65,10.84a93.13,93.13,0,0,1-5.82,9.69c4.26-.21,5.35-.34,6.91-.48v6.1a106.44,106.44,0,0,0-11.11-.41,58.81,58.81,0,0,1-5.76,5.7H26c2.3,0,5.42-.07,7.65-.28-.2,3.19-.2,8.61-.2,9.83v9.08a85.63,85.63,0,0,0,.68,11.18H27.71c.07-1.36.07-1.63.14-4.48H14.77c.07,1.7.07,2.44.27,4.48H8.74c.47-6.51.47-8.41.47-11V39.84a29.93,29.93,0,0,1-5.14,2.5L0,37.19c6-2.37,11.59-4.81,18.77-11.45H13.69A109.6,109.6,0,0,0,2,26.15v-6.1c4.75.55,11.32.55,11.73.55h2.16V14h-2.3a62.58,62.58,0,0,0-8.13.41V8.33a62.15,62.15,0,0,0,8.13.61h2.3V7.72c0-4.47,0-4.94-.06-7.45L22.7.81c.81.07,1.49.07,1.49.88S24,2.44,22,3.12c0,1.35-.07,3.18-.07,4.47V8.94a64.85,64.85,0,0,0,7.86-.61v2.85a40.13,40.13,0,0,0,2.51-5.76l6.1,3.46c.4.27.67.47.67.88C39,10.77,37.94,10.77,36.65,10.84Zm-8.8,25.74H14.77v5H27.85Zm0,9.83H14.77v5.21H27.85ZM21.88,14V20.6h1.63a56.73,56.73,0,0,0,4.54-6.37C26.15,14.09,23.17,14,21.88,14ZM58,53.39c-2.37,1-5.69,1-7.65,1l-3.12-7.32a20.66,20.66,0,0,0,5.42.75c1.63,0,4.81,0,4.81-5.55,0-6.37-4.2-10.24-10.23-15.86,3.19-6.1,5.69-11.24,8.33-17.54H46.21v33.4c0,3.45.2,11.44.81,19H40c.48-6.24.61-13.89.61-18.5V22.63c0-5.49,0-13.82-.4-19.31A54.46,54.46,0,0,0,47,3.59h5.35a68.49,68.49,0,0,0,8.2-.54l3,3A164.22,164.22,0,0,1,54.2,25.54c2.78,2.51,9.42,8.54,9.42,17.55C63.62,45.87,62.74,51.35,58,53.39Z"/><path d="M106,16.4H99v7.24h4.87c4.75,0,11.66-.27,16.33-.54-.13,2-.34,7.52-.34,9.56V46l.07,1.9c.27,7.11-3.73,8.53-9.76,8.53a9.26,9.26,0,0,1-2.37-.2l-3.32-6.84c1.36.2,5,.68,6.3.68,2,0,2.58-.48,2.58-3.53v-17H99V45.87c0,2,.33,10.29.54,15.92H91.74c.34-3.93.54-6.3.61-8.27.06-2.23.2-5.76.2-7.25V29.54H79V42c0,2.1.2,5.49.34,8,.07,1.35.2,3.86.41,6.23H72c.41-4.06.68-9.82.68-11.31V33.2c0-1.56-.27-8.47-.34-9.89,3.46.13,11.32.33,14.84.33h5.42V16.4H86.32c-6.85,0-13.69.13-20.53.54V10.3c7,.47,17.41.54,20.53.54h6.09c-.06-2.71-.2-7.18-.33-10.84l8.46.81c.55.07,1.16.21,1.16.88a.9.9,0,0,1-.34.75c0,.07-1.7,1.15-1.83,1.22-.14,1.15-.27,6.16-.27,7.18H106c6.91,0,13.89-.07,20.8-.54v6.64C117.82,16.4,106.84,16.4,106,16.4Z"/><path d="M134,28a21.81,21.81,0,0,1,15.34-6.35,18.55,18.55,0,0,1,11.77,3.9,21.1,21.1,0,0,1,7.63,16.38c0,4.85-1.6,8.81-5.51,11.63s-9.89,4.43-18.88,4.8c-.33,0-.47-.14-.47-.28a.41.41,0,0,1,.38-.38,31.27,31.27,0,0,0,12.9-5.83,14.88,14.88,0,0,0,5.27-12,18.41,18.41,0,0,0-4.71-12.61,11.79,11.79,0,0,0-8.61-3.77c-.47,0-.94.05-1.41.09a11.17,11.17,0,0,1,1.88,2.22A7.16,7.16,0,0,1,150.79,30a26,26,0,0,1-.52,4.05c-1.32,6.64-4.24,12.81-6.83,16-2.45,3-5.27,4.7-7.77,4.7-2,0-3.53-.51-4.37-3.34A16.51,16.51,0,0,0,129.84,48c-1.37-2.21-2.69-3.86-2.69-6.44C127.15,36.42,130.07,31.72,134,28ZM132.61,47a3,3,0,0,0,2.74,1.41c1.55,0,3.24-1.13,5-3.39a39.28,39.28,0,0,0,6.73-14.41,18.18,18.18,0,0,0,.52-3.34,6.53,6.53,0,0,0-.38-2.26,7.94,7.94,0,0,0-.65-1.27,17.1,17.1,0,0,0-9.37,6.31c-3.25,4-5.46,8.71-5.46,13.46A6.08,6.08,0,0,0,132.61,47Z"/><path d="M58.91,79.1a37.58,37.58,0,0,0,.33-4,1.84,1.84,0,0,0-1.17-1.94,15.62,15.62,0,0,0-1.87-.78c-.39-.13-.59-.32-.59-.58a1.13,1.13,0,0,1,.52-.78,6.16,6.16,0,0,1,3.5-1.49,14.5,14.5,0,0,1,5.17,1.69c2.14,1.1,3.31,2.07,3.31,3.49a2,2,0,0,1-.52,1.3,5.94,5.94,0,0,0-1.1,2.58c-.46,2.08-.84,4.08-1.3,6,2-.32,4-.58,6.22-.9,1.16-.2,1.23-.13,2.39-1.36a2.63,2.63,0,0,1,1.81-.78c1,0,3,1.17,4.92,2.53,2.33,1.55,4,3.3,4,4.66a2.75,2.75,0,0,1-1.23,2.07c-1.55,1-1.55,1.36-1.75,4a90.78,90.78,0,0,1-2.65,14.3c-.65,2.52-1.81,5.18-3.82,6.73a8.33,8.33,0,0,1-5.37,2.4,3.92,3.92,0,0,1-4.27-3.5,7.43,7.43,0,0,0-1.69-4,30.9,30.9,0,0,0-3.62-3.82.67.67,0,0,1-.26-.52c0-.32.32-.52.71-.32,1.82.71,3.82,1.55,5.31,2.14a17.93,17.93,0,0,0,3.63.84c1.1,0,1.74-1.17,2.39-3.05,1.55-3.49,2-8.28,2.52-13.39.13-1.49.2-3,.2-4.21,0-.71,0-.91-.84-.91a42,42,0,0,0-4.4.65c-1.56.26-3.31.65-5.31,1-2.2,8.1-4.92,15-9.26,20.91-4.66,6.47-11,12.11-18.83,14.95a5.17,5.17,0,0,1-1.1.33.43.43,0,0,1-.46-.39.69.69,0,0,1,.33-.58,55.22,55.22,0,0,0,14.88-16.9,69.22,69.22,0,0,0,6.93-16.57c-.71.13-1.36.33-1.94.45a17.16,17.16,0,0,0-3.82,1.43c-1.1.65-1.36,1.1-2.53,1.1-1.42,0-2.84-1.17-4.33-2.72-1.1-1.1-2.27-2.85-2.27-4a6.05,6.05,0,0,1,.26-1.62c.13-.39.32-.52.52-.52a1,1,0,0,1,.65.26,13.29,13.29,0,0,0,2.26,1.55,4,4,0,0,0,2.2.59,36,36,0,0,0,5-.72c1.74-.32,3.49-.58,5.24-.84C58.14,83.7,58.59,81.5,58.91,79.1Z"/><path d="M96.4,89.2c0-1.1-.13-1.23-.91-1.81-.26-.2-.58-.46-1-.78S94,86.22,94,86s.13-.33.45-.52a6.33,6.33,0,0,1,2.92-.78c1.16,0,3,1,4.92,2.27s3.1,2.85,3.1,4.27a2.51,2.51,0,0,1-.9,1.94,5,5,0,0,0-1.56,2.46,42.73,42.73,0,0,1-10,15,34.82,34.82,0,0,1-13.07,7.9,4.14,4.14,0,0,1-.91.26c-.39,0-.58-.19-.58-.45a.75.75,0,0,1,.26-.52,45,45,0,0,0,10-10.36,48.51,48.51,0,0,0,6.86-13.59A19.75,19.75,0,0,0,96.4,89.2ZM129.92,92A97.27,97.27,0,0,0,141.83,79a.72.72,0,0,1,.46-.2.44.44,0,0,1,.45.46,3.06,3.06,0,0,1-.26.84,62.65,62.65,0,0,1-9.38,16.37,66.69,66.69,0,0,1-13.27,12.37c-2,1.23-2.14,1.23-2.59,2.2a2.14,2.14,0,0,1-2.14,1.49c-1.49,0-3.17-1.43-4.85-3.37s-3-3.69-3-4.6a2.75,2.75,0,0,1,.9-2.2c.45-.64.39-.77.45-2.59s.13-4.2.13-6.92c0-2.2-.06-4.6-.13-7.06s-.13-3.3-1-4A13,13,0,0,0,106.1,81c-.32-.13-.45-.32-.45-.51a.94.94,0,0,1,.52-.72,8.65,8.65,0,0,1,3.88-1.29c1.23,0,2.66.78,4.4,1.94s3,2.33,3,3.56a2.58,2.58,0,0,1-.71,1.75c-.91,1-1,1.29-1.1,3.62-.26,4.15-.32,9-.32,10.75,0,1.36,0,1.42.58,1.42a5.88,5.88,0,0,0,2.26-.9C122.48,98.39,126.43,95,129.92,92Z"/><path d="M159.64,83.5a61.39,61.39,0,0,1-15.92,2.27c-.39,0-.59-.2-.59-.45a.53.53,0,0,1,.46-.52A93.41,93.41,0,0,0,158,79.43a64.68,64.68,0,0,0,7.37-4c1.17-.77,2.21-1.49,2.21-1.87a2.41,2.41,0,0,0-.85-1.49,5.78,5.78,0,0,0-.9-.78.78.78,0,0,1-.39-.58c0-.2.13-.33.52-.46a12.53,12.53,0,0,1,2.39-.32,13.92,13.92,0,0,1,5.7,2.14c2.46,1.42,3.88,2.84,3.88,4.33,0,1.1-.39,1.56-2,1.82a13.69,13.69,0,0,0-2.72.77,58.24,58.24,0,0,1-6.93,2.59,11.18,11.18,0,0,1,2.53,1.3c1.87,1.29,2.91,1.81,2.91,3.43a4,4,0,0,1-.33,1.36,5.55,5.55,0,0,0-.38,1.48c0,.26-.07.52-.07.78,1.3-.19,2.72-.39,4.14-.65a4.8,4.8,0,0,0,2.92-1.1,5.27,5.27,0,0,1,3-1,16.13,16.13,0,0,1,5.12,1.23c2.33.91,3.69,2,3.69,3.69s-.91,2.4-2.85,2.4a37.56,37.56,0,0,1-4.34-.52,46.06,46.06,0,0,0-7.57-.13c-1.42.06-2.91.19-4.4.39-.84,8.35-3.17,15.14-8.48,20.52-3.56,3.75-8.93,6.73-16.31,8.35a5.1,5.1,0,0,1-.84.13.44.44,0,0,1-.46-.39.53.53,0,0,1,.33-.46c6.15-3.3,9.83-6.66,12.68-10.87a34.12,34.12,0,0,0,5.63-16.25c-2.07.39-4.27.84-6.34,1.36a19,19,0,0,0-4.47,1.56c-1.16.71-1.68,1.1-2.52,1.1-1.62,0-3-1-4.34-2.2s-2.91-2.92-2.91-4.08a7.45,7.45,0,0,1,.19-1.56c.07-.38.26-.51.46-.51a1.15,1.15,0,0,1,.58.26,10.7,10.7,0,0,0,2.4,1.36,5.92,5.92,0,0,0,2.39.51,39.61,39.61,0,0,0,4.47-.51c4.07-.72,7.38-1.3,10.48-1.75.07-1.17.07-2.4.07-3.63a5,5,0,0,0-1-3.36,3,3,0,0,0-1-.84C161,83.18,160.29,83.31,159.64,83.5Z"/><path d="M200.23,114.94a46.76,46.76,0,0,0-5.51.42c-1.32.19-5.18.94-6.5,1.27a8.38,8.38,0,0,0-2.45.89,2.7,2.7,0,0,1-1.55.62,5,5,0,0,1-2.87-1.46c-1.13-.94-1.79-1.79-1.79-2.45a3,3,0,0,1,.09-.94c.1-.38.24-.43.43-.43a.53.53,0,0,1,.37.14,7.88,7.88,0,0,0,1.46.85,2.88,2.88,0,0,0,1.42.38,18.81,18.81,0,0,0,2.82-.38c2.68-.47,5.6-.94,8.38-1.32l.89-.14c.29-3.24.38-5.13.38-5.65v-1.83c0-.28,0-.28-.28-.28a3.42,3.42,0,0,0-.76.14c-1.13.23-2.3.52-3.62.85a4.78,4.78,0,0,0-1.37.56,5.41,5.41,0,0,1-.56.33,2.36,2.36,0,0,1-1,.23,4.08,4.08,0,0,1-2.45-1.36,4.66,4.66,0,0,1-1.36-2.17,2.31,2.31,0,0,1,.14-.94c.14-.37.23-.42.42-.42s.19.05.38.19a5.74,5.74,0,0,0,1,.56,2.47,2.47,0,0,0,1.36.38c.38,0,1.08-.1,2.12-.24,1.6-.28,3.06-.56,4.57-.89a2.13,2.13,0,0,0,1.41-.71,1.26,1.26,0,0,1,1.08-.52,6.74,6.74,0,0,1,3.11,1.56c1.31,1,2.16,1.93,2.16,2.82a1.2,1.2,0,0,1-.7,1.13c-.57.33-.76.66-1,1.79s-.47,2.4-.85,4c.52,0,.94-.09,1.32-.09a2.22,2.22,0,0,0,1.41-.38,2.89,2.89,0,0,1,1.51-.47,10.16,10.16,0,0,1,3.43.94c1.42.66,1.89,1.18,1.89,2.21s-.47,1.37-1.65,1.37a18,18,0,0,1-2.73-.33,29.81,29.81,0,0,0-3.58-.28Z"/><path d="M232.81,90.56c0-.52,0-.52-.58-.52a18.88,18.88,0,0,0-2.59.45c-2.46.59-5.83,1.43-8.42,2.27-.84.26-3.49,1-4.59,2a4,4,0,0,1-2.72,1.16c-1.49,0-2.85-1-4.21-2.2S207,91,207,90a6.41,6.41,0,0,1,.07-1.56c.06-.51.26-.71.52-.71a.8.8,0,0,1,.58.26,9.83,9.83,0,0,0,1.88,1.1,5.79,5.79,0,0,0,2.39.58,29.79,29.79,0,0,0,5.12-.77c4-.85,7.83-1.75,11.71-2.53,2.07-.52,2.27-.45,3.11-1.42a2.34,2.34,0,0,1,2.2-1.17c1.1,0,3.17,1,5,2.27,2.14,1.42,4.34,3.17,4.34,4.79a2.08,2.08,0,0,1-1.36,1.75c-1.49.58-1.62,1.1-2.33,3.17a44.88,44.88,0,0,1-13.72,19.42,44.42,44.42,0,0,1-17.74,8,9.56,9.56,0,0,1-1.29.19c-.39,0-.65-.19-.65-.45s.13-.46.52-.65a46.22,46.22,0,0,0,14.82-11,47.89,47.89,0,0,0,9.77-17.16A19.49,19.49,0,0,0,232.81,90.56ZM210,75.28c.06-.45.19-.64.45-.64a1,1,0,0,1,.52.19c.71.45,1.36.78,1.87,1a6,6,0,0,0,2.53.51,27.7,27.7,0,0,0,3.95-.58c1.87-.39,4.79-1.16,6.79-1.75a5.17,5.17,0,0,0,2.4-1.42c.65-.58,1.23-.65,2.52-.65a12.52,12.52,0,0,1,4.34.71c1.55.59,2.39,1.56,2.39,2.79,0,1.74-1.42,2.39-3.56,2.91-3.3.78-8.8,1.81-12.36,2.65a22.36,22.36,0,0,1-4.72.65,7.29,7.29,0,0,1-4.86-2.39c-1.23-1.23-2.26-2.59-2.26-3.37Z"/><path d="M253.72,89.2c0-1.1-.13-1.23-.91-1.81-.25-.2-.58-.46-1-.78s-.45-.39-.45-.58.13-.33.45-.52a6.32,6.32,0,0,1,2.91-.78c1.17,0,3,1,4.92,2.27s3.11,2.85,3.11,4.27a2.49,2.49,0,0,1-.91,1.94,5,5,0,0,0-1.55,2.46,43,43,0,0,1-10,15,34.78,34.78,0,0,1-13.08,7.9,4,4,0,0,1-.91.26c-.38,0-.58-.19-.58-.45a.79.79,0,0,1,.26-.52,44.56,44.56,0,0,0,10-10.36,48.51,48.51,0,0,0,6.86-13.59A19.26,19.26,0,0,0,253.72,89.2ZM287.25,92A97.94,97.94,0,0,0,299.16,79a.7.7,0,0,1,.45-.2.45.45,0,0,1,.46.46,3.06,3.06,0,0,1-.26.84,62.68,62.68,0,0,1-9.39,16.37,66.42,66.42,0,0,1-13.27,12.37c-1.94,1.23-2.13,1.23-2.59,2.2a2.13,2.13,0,0,1-2.13,1.49c-1.49,0-3.17-1.43-4.86-3.37s-3-3.69-3-4.6a2.76,2.76,0,0,1,.91-2.2c.45-.64.39-.77.45-2.59s.13-4.2.13-6.92c0-2.2-.07-4.6-.13-7.06s-.13-3.3-1-4a13,13,0,0,0-1.49-.84c-.32-.13-.45-.32-.45-.51a.91.91,0,0,1,.52-.72,8.61,8.61,0,0,1,3.88-1.29c1.23,0,2.65.78,4.4,1.94s3,2.33,3,3.56a2.58,2.58,0,0,1-.71,1.75c-.91,1-1,1.29-1.1,3.62-.26,4.15-.33,9-.33,10.75,0,1.36,0,1.42.58,1.42a5.85,5.85,0,0,0,2.27-.9C279.81,98.39,283.75,95,287.25,92Z"/><path d="M307,102.34a4.54,4.54,0,0,1-9.07,0,4.54,4.54,0,0,1,9.07,0Z"/><path d="M28.88,138.9c-.13-2.65-.19-3.3-1.55-4a11.91,11.91,0,0,0-1.95-.91c-.38-.12-.58-.32-.58-.51a.93.93,0,0,1,.52-.65,8.93,8.93,0,0,1,4.14-1.62,11.4,11.4,0,0,1,4.73,1.55c2.39,1.43,3.82,2.4,3.82,3.89a2.71,2.71,0,0,1-.46,1.49,5.18,5.18,0,0,0-.64,2.72c-.2,2.26-.33,4.59-.46,7,1.49-.2,2.92-.33,4.27-.46,1.75-.13,2-.32,2.85-1.1a3.72,3.72,0,0,1,2.59-.84,18.16,18.16,0,0,1,6,1.75c1.94.91,2.91,1.88,2.91,3.56,0,1.49-.77,2.26-2.46,2.26a26.55,26.55,0,0,1-4.85-.51,35.7,35.7,0,0,0-7.77-.39c-1,.06-2.39.13-3.88.26-.71,8.87-2.72,17.54-9.45,24.21a32.68,32.68,0,0,1-15.92,8.6,5.45,5.45,0,0,1-1,.2c-.32,0-.52-.2-.52-.39a.62.62,0,0,1,.39-.52,35.79,35.79,0,0,0,12.23-10.94c4-5.63,6.09-12.62,6.74-20.06-2.53.45-5,1-7.06,1.49a8.28,8.28,0,0,0-3.17,1.42,4,4,0,0,1-2.53,1c-1.48,0-2.91-1.16-4.4-2.39-1.74-1.49-3.17-3.3-3.17-4.34a8.89,8.89,0,0,1,.13-1.75c.13-.45.26-.65.52-.65a1.09,1.09,0,0,1,.65.26A12.75,12.75,0,0,0,12.05,150a6.35,6.35,0,0,0,2.85.78,50.19,50.19,0,0,0,5-.58c3-.52,5.89-1,8.86-1.43C28.94,145.57,29,142.27,28.88,138.9Z"/><path d="M84.16,152.3c0-.51,0-.51-.58-.51a17.24,17.24,0,0,0-2.59.45c-2.46.58-5.83,1.42-8.42,2.26-.84.26-3.49,1-4.59,2a3.93,3.93,0,0,1-2.72,1.16c-1.49,0-2.85-1-4.21-2.2s-2.72-2.78-2.72-3.75a6.33,6.33,0,0,1,.07-1.55c.06-.52.26-.71.52-.71a.8.8,0,0,1,.58.25,9.83,9.83,0,0,0,1.88,1.1,5.82,5.82,0,0,0,2.39.59,28.86,28.86,0,0,0,5.11-.78c4-.84,7.84-1.75,11.72-2.52,2.07-.52,2.27-.46,3.11-1.43a2.33,2.33,0,0,1,2.2-1.16c1.1,0,3.17,1,5,2.26,2.14,1.43,4.34,3.17,4.34,4.79a2.09,2.09,0,0,1-1.36,1.75c-1.49.58-1.62,1.1-2.33,3.17A44.76,44.76,0,0,1,77.82,176.9a44.15,44.15,0,0,1-17.74,8,8.2,8.2,0,0,1-1.29.19c-.39,0-.65-.19-.65-.45s.13-.45.52-.64a46.25,46.25,0,0,0,14.82-11,47.85,47.85,0,0,0,9.77-17.15A19.57,19.57,0,0,0,84.16,152.3ZM61.38,137c.06-.46.19-.65.45-.65a1,1,0,0,1,.52.19,19.51,19.51,0,0,0,1.87,1,5.89,5.89,0,0,0,2.53.52,27.9,27.9,0,0,0,4-.59c1.87-.38,4.79-1.16,6.79-1.74a5.26,5.26,0,0,0,2.4-1.43c.65-.58,1.23-.64,2.52-.64a12.29,12.29,0,0,1,4.34.71c1.55.58,2.39,1.55,2.39,2.78,0,1.75-1.42,2.4-3.56,2.91-3.3.78-8.8,1.82-12.36,2.66a23,23,0,0,1-4.72.65,7.3,7.3,0,0,1-4.86-2.4c-1.23-1.23-2.26-2.59-2.26-3.37Z"/><path d="M127,154.83c1.3,1.16,2.27,2.13,2.27,3.62a5.27,5.27,0,0,1-.78,2.2c-.39.78-1,1.94-1.36,2.79a40.3,40.3,0,0,1-11.07,14.24,35.91,35.91,0,0,1-14.37,7,4.48,4.48,0,0,1-1,.2.57.57,0,0,1-.58-.52.65.65,0,0,1,.45-.58,37.23,37.23,0,0,0,11.33-9.71,42.72,42.72,0,0,0,7.51-12.82,14.71,14.71,0,0,0,1-4.21,3.48,3.48,0,0,0-.52-2.33,4.53,4.53,0,0,0-.52-.58c-1.75.39-3.49.84-5.11,1.29a17.19,17.19,0,0,0-4.15,1.69,4.94,4.94,0,0,1-3,1.16c-1.42,0-3.17-1.1-4.59-2.33-1.69-1.42-3-3-3-4.08a13.32,13.32,0,0,1,.06-1.48c.07-.39.26-.59.59-.59a1.07,1.07,0,0,1,.64.26,12.21,12.21,0,0,0,2.53,1.3,6.29,6.29,0,0,0,2.85.64,31.51,31.51,0,0,0,4.72-.64c4.34-.85,8-1.56,11.65-2.2,3.24-.59,6.35-1.1,9.58-1.62,1.69-.33,1.94-.39,2.79-1.1a3,3,0,0,1,2.33-.71,17.67,17.67,0,0,1,5.69,1.48c1.88.85,2.91,1.75,2.91,3.18,0,1.61-.9,2.46-2.78,2.46a27.26,27.26,0,0,1-4.21-.46,36.58,36.58,0,0,0-6.34-.19c-2.52.19-5,.52-7.7.9A15.83,15.83,0,0,1,127,154.83Zm-20.26-18.32a1,1,0,0,1,.52.19,11.93,11.93,0,0,0,2.14,1.17,7.47,7.47,0,0,0,2.52.45,23.88,23.88,0,0,0,4.21-.65,45.25,45.25,0,0,0,7.57-2.13,5.62,5.62,0,0,0,2.07-1.3,3.37,3.37,0,0,1,2.53-.64,12.4,12.4,0,0,1,4.33.84c1.69.64,2.4,1.68,2.4,3,0,1.74-2.14,2.46-4.08,2.84-3.49.65-9.06,2-12.49,2.66a47.37,47.37,0,0,1-5.24.77c-2.14,0-3.43-1.1-4.79-2.39-.91-.91-2.14-2.27-2.14-3.37a3.91,3.91,0,0,1,.07-.9C106.43,136.64,106.56,136.51,106.75,136.51Z"/><path d="M148.83,168.61l-1.46,1.32a34.08,34.08,0,0,1-10.92,6.26,3.2,3.2,0,0,1-.85.19.38.38,0,0,1-.42-.33.51.51,0,0,1,.23-.43c.43-.28.8-.56,1.23-.84a54.76,54.76,0,0,0,8.28-7.35,34.62,34.62,0,0,0,6.12-8.38,3,3,0,0,0,.38-1c0-.23-.14-.42-.47-.7a5.38,5.38,0,0,0-.8-.52c-.19-.14-.29-.23-.29-.42a.61.61,0,0,1,.33-.43,6.1,6.1,0,0,1,1.89-.37,5.07,5.07,0,0,1,2.77,1.22c1.79,1.22,2.22,1.7,2.22,2.64,0,.52-.24.75-.9,1.08a2.5,2.5,0,0,0-1,.94c-1.27,1.65-2.55,3.11-3.72,4.43a6.26,6.26,0,0,1,.66.47c.89.7,1.22,1.13,1.22,1.55a1.26,1.26,0,0,1-.28.85c-.1.14-.1.28-.1.89,0,3.44.1,6.92.19,10.36,0,.75,0,1.41,0,1.83,0,1.79-.71,2.64-2.12,2.64-1,0-1.6-.42-2.21-1.74A8.22,8.22,0,0,1,148,180a3.26,3.26,0,0,1,.37-1.46,4.4,4.4,0,0,0,.29-1.36c.09-1.13.14-6.45.14-8.43Z"/><path d="M186.43,143.44c1.3-.13,1.36-.26,2.4-1.43a2.59,2.59,0,0,1,1.81-1c1.23,0,3.17,1.17,5.05,2.52,2.33,1.62,3.69,2.92,3.69,4.28a2,2,0,0,1-1.1,2.07c-1.23.64-1.36.84-1.82,2.46-3.1,9.64-7.37,17.28-13.72,23a41,41,0,0,1-18.9,9.64,3.08,3.08,0,0,1-.84.13c-.26,0-.45-.13-.45-.38a.86.86,0,0,1,.45-.59,54.21,54.21,0,0,0,15.15-12.75,48.5,48.5,0,0,0,9.64-19.61,21.51,21.51,0,0,0,.58-4c0-.65-.19-.65-1.68-.52a136.58,136.58,0,0,0-16.76,2.85c.38,3.75.9,7.18,1,10.48s-.71,3.95-3,3.95a3.63,3.63,0,0,1-2.85-1.42,6,6,0,0,1-1.49-3c-.19-1.88-.19-2.72-.26-4.34-.06-1.42-.32-4.85-.64-6.86-.2-1.55-.33-2-1.1-2.78A8.15,8.15,0,0,0,160,145c-.26-.2-.39-.32-.39-.52s.13-.45.52-.65a4.5,4.5,0,0,1,2.2-.64,12.44,12.44,0,0,1,4.73,1.49,6.5,6.5,0,0,1,1.81,1.16c.78-.06,1.55-.19,2.33-.32,1.17-.2,2.4-.39,3.56-.52,0-1.75.07-4.08-.06-6.67-.07-2.13-.2-2.59-.78-3.17a5.31,5.31,0,0,0-1.88-1c-.45-.13-.64-.32-.64-.58s.19-.45.58-.71a8.15,8.15,0,0,1,3.62-1.55,13.94,13.94,0,0,1,4.86,1.55c1.81,1,3.17,1.62,3.17,3.17a2.28,2.28,0,0,1-.65,1.75c-.71.52-.84.78-1,2.26-.13.78-.13,2.14-.2,4C183.45,143.82,185,143.63,186.43,143.44ZM200,133.92a4.39,4.39,0,0,1,2.46,3.62,2.77,2.77,0,0,1-2.52,2.92c-.91,0-1.69-.39-2.46-1.75a13.77,13.77,0,0,0-5.12-5.5c-.32-.13-.45-.33-.45-.52s.19-.39.65-.39A14.12,14.12,0,0,1,200,133.92Zm5.57-5.18a4.34,4.34,0,0,1,2.72,3.69,2.47,2.47,0,0,1-2.27,2.72c-.84,0-1.49-.26-2.52-1.75a13,13,0,0,0-5.38-4.72c-.32-.13-.45-.33-.45-.52s.19-.32.58-.39A14.3,14.3,0,0,1,205.53,128.74Z"/></g></g></svg>