<svg xmlns="http://www.w3.org/2000/svg" viewBox="0 0 432.25 42.16"><g data-name="Layer 2"><path d="M25 7.4a63.81 63.81 0 0 1-4 6.6c2.91-.13 3.65-.23 4.71-.32v4.16a73.08 73.08 0 0 0-7.58-.28 39 39 0 0 1-3.92 3.89h3.51c1.57 0 3.7-.05 5.22-.19-.14 2.17-.14 5.87-.14 6.7v6.2a59.13 59.13 0 0 0 .46 7.62H18.9c.05-.92.05-1.11.1-3.05h-8.92c0 1.16 0 1.67.18 3.05H6c.33-4.44.33-5.73.33-7.53v-7.07a21.16 21.16 0 0 1-3.52 1.71L0 25.37a36 36 0 0 0 12.8-7.81H9.34a74.59 74.59 0 0 0-8 .28v-4.16c3.24.37 7.72.37 8 .37h1.48V9.57H9.24a43 43 0 0 0-5.54.27V5.68a43.66 43.66 0 0 0 5.54.42h1.58v-.83c0-3 0-3.38-.05-5.09l4.71.37c.56 0 1 0 1 .61s-.14.5-1.53 1V6.1a45.88 45.88 0 0 0 5.36-.42v2A28.6 28.6 0 0 0 22 3.7l4.16 2.35c.28.19.46.33.46.61 0 .69-.74.69-1.62.74zM19 25h-8.92v3.42H19zm0 6.7h-8.92v3.56H19zM14.93 9.57v4.48H16a38.41 38.41 0 0 0 3.09-4.34c-1.25-.1-3.28-.14-4.16-.14zm24.63 26.85a14.33 14.33 0 0 1-5.22.69l-2.13-5a14.05 14.05 0 0 0 3.7.51c1.11 0 3.28 0 3.28-3.79 0-4.34-2.86-7-7-10.81 2.18-4.16 3.89-7.68 5.69-12h-6.36v22.82c0 2.36.14 7.81.56 12.94h-4.81c.32-4.25.41-9.47.41-12.62V15.44c0-3.75 0-9.43-.27-13.18a36.19 36.19 0 0 0 4.67.19h3.65a47 47 0 0 0 5.59-.37l2.08 2A110.28 110.28 0 0 1 37 17.42c1.9 1.71 6.43 5.83 6.43 12-.03 1.87-.63 5.58-3.87 7zm32.77-25.24h-4.81v4.95h3.33c3.24 0 8-.18 11.14-.37-.09 1.34-.23 5.13-.23 6.52v10.4c.18 4.85-2.55 5.82-6.66 5.82a6.19 6.19 0 0 1-1.62-.14l-2.26-4.67c.92.14 3.42.47 4.3.47 1.34 0 1.75-.33 1.75-2.41v-11.6h-9.8v11.14c0 1.34.24 7 .37 10.86h-5.26c.23-2.68.37-4.3.42-5.64 0-1.52.13-3.93.13-4.94V20.15h-9.24v8.51c0 1.43.14 3.74.23 5.45.05.92.14 2.63.28 4.25h-5.32c.28-2.77.46-6.7.46-7.72v-8c0-1.07-.18-5.78-.23-6.75 2.36.09 7.72.23 10.13.23h3.69v-4.94h-4.25c-4.67 0-9.34.1-14 .37V7c4.8.32 11.87.37 14 .37H63c0-1.85-.14-4.9-.23-7.4l5.78.55c.37 0 .78.14.78.61a.57.57 0 0 1-.23.5 13.54 13.54 0 0 1-1.25.84c-.09.78-.18 4.2-.18 4.9h4.62C77 7.4 81.81 7.35 86.52 7v4.52c-6.15-.34-13.63-.34-14.19-.34zm18.77 8.95A14.12 14.12 0 0 1 101 16a12 12 0 0 1 7.6 2.52 13.62 13.62 0 0 1 4.93 10.58 8.66 8.66 0 0 1-3.53 7.54c-2.43 1.73-6.38 2.85-12.19 3.1-.21 0-.3-.1-.3-.19a.25.25 0 0 1 .24-.24 20.21 20.21 0 0 0 8.33-3.77 9.6 9.6 0 0 0 3.4-7.72 11.89 11.89 0 0 0-3-8.15 7.63 7.63 0 0 0-5.56-2.43c-.3 0-.61 0-.91.06a7.22 7.22 0 0 1 1.21 1.43 4.63 4.63 0 0 1 .76 2.74 16.68 16.68 0 0 1-.33 2.61 25.89 25.89 0 0 1-4.41 10.34c-1.58 1.94-3.4 3-5 3a2.55 2.55 0 0 1-2.83-2.16 10.42 10.42 0 0 0-.94-2.22c-.88-1.43-1.73-2.49-1.73-4.16-.07-3.28 1.81-6.32 4.36-8.75zm-.91 12.31a1.89 1.89 0 0 0 1.76.91c1 0 2.1-.73 3.26-2.18a25.47 25.47 0 0 0 4.34-9.31 11.46 11.46 0 0 0 .34-2.15 4.12 4.12 0 0 0-.25-1.46 4.83 4.83 0 0 0-.42-.82 11 11 0 0 0-6 4.07 14.16 14.16 0 0 0-3.53 8.69 3.9 3.9 0 0 0 .5 2.25z"/><path d="M127.8 10.8a26.84 26.84 0 0 0 .2-2.72 1.26 1.26 0 0 0-.79-1.32 10.41 10.41 0 0 0-1.21-.53q-.39-.14-.39-.39a.75.75 0 0 1 .35-.53 4.16 4.16 0 0 1 2.37-1 9.85 9.85 0 0 1 3.51 1.14c1.45.75 2.25 1.41 2.25 2.37a1.31 1.31 0 0 1-.36.88 4 4 0 0 0-.74 1.76c-.31 1.4-.57 2.76-.88 4.08 1.36-.22 2.72-.39 4.21-.61.8-.13.84-.09 1.63-.92a1.78 1.78 0 0 1 1.23-.53 8.28 8.28 0 0 1 3.34 1.71c1.58 1.06 2.68 2.24 2.68 3.16a1.87 1.87 0 0 1-.84 1.41c-1.05.66-1.05.92-1.19 2.68a62.36 62.36 0 0 1-1.79 9.7 8.39 8.39 0 0 1-2.6 4.57 5.65 5.65 0 0 1-3.64 1.62 2.66 2.66 0 0 1-2.9-2.37 5.1 5.1 0 0 0-1.14-2.72 21.92 21.92 0 0 0-2.46-2.59.46.46 0 0 1-.18-.35c0-.22.22-.35.49-.22 1.23.48 2.59 1.05 3.6 1.45a11.91 11.91 0 0 0 2.46.57c.74 0 1.18-.79 1.62-2.07 1.06-2.37 1.36-5.62 1.71-9.09.09-1 .14-2.06.14-2.85 0-.48 0-.62-.57-.62s-1.89.27-3 .44-2.24.44-3.6.71c-1.49 5.49-3.34 10.14-6.28 14.18a27.88 27.88 0 0 1-12.78 10.15 3.73 3.73 0 0 1-.75.22.29.29 0 0 1-.3-.27.45.45 0 0 1 .22-.39A37.6 37.6 0 0 0 121.48 30a46.64 46.64 0 0 0 4.69-11.24c-.48.09-.92.22-1.31.31a11.27 11.27 0 0 0-2.59 1c-.75.43-.93.74-1.72.74-1 0-1.93-.79-2.94-1.84a4.94 4.94 0 0 1-1.54-2.72 4.06 4.06 0 0 1 .18-1.1c.09-.27.22-.35.35-.35a.63.63 0 0 1 .4.2 9.56 9.56 0 0 0 1.58 1 2.75 2.75 0 0 0 1.49.39 24.64 24.64 0 0 0 3.38-.48c1.19-.22 2.37-.4 3.56-.57.26-1.42.57-2.92.79-4.54zm25.42 6.85a1.13 1.13 0 0 0-.61-1.23c-.18-.13-.4-.31-.71-.53s-.31-.26-.31-.39.09-.22.31-.35a4.36 4.36 0 0 1 2-.53 7.5 7.5 0 0 1 3.34 1.54c1.23.88 2.1 1.93 2.1 2.9a1.67 1.67 0 0 1-.61 1.31 3.45 3.45 0 0 0-1.07 1.63 29.2 29.2 0 0 1-6.81 10.15 23.54 23.54 0 0 1-8.85 5.39 2.69 2.69 0 0 1-.62.18c-.26 0-.39-.13-.39-.31a.51.51 0 0 1 .17-.35A30.25 30.25 0 0 0 148 30a33.17 33.17 0 0 0 4.66-9.22 13.65 13.65 0 0 0 .56-3.13zM176 19.54a67.2 67.2 0 0 0 8.08-8.78.48.48 0 0 1 .31-.14.3.3 0 0 1 .3.31 1.92 1.92 0 0 1-.17.57 42.77 42.77 0 0 1-6.37 11.11 45 45 0 0 1-9 8.39c-1.32.83-1.45.83-1.76 1.49a1.45 1.45 0 0 1-1.45 1c-1 0-2.15-1-3.29-2.28s-2.07-2.5-2.07-3.12a1.86 1.86 0 0 1 .62-1.49c.31-.44.26-.53.31-1.76s.08-2.85.08-4.7c0-1.49 0-3.11-.08-4.78s-.09-2.24-.66-2.68a7.16 7.16 0 0 0-1-.57c-.22-.09-.31-.22-.31-.35a.63.63 0 0 1 .35-.49 5.9 5.9 0 0 1 2.64-.88 6.08 6.08 0 0 1 3 1.32c1.19.79 2 1.58 2 2.42a1.75 1.75 0 0 1-.48 1.18c-.62.71-.66.88-.75 2.46-.17 2.81-.22 6.11-.22 7.29 0 .92 0 1 .4 1a4 4 0 0 0 1.54-.62 43 43 0 0 0 7.98-5.9zm20.12-5.75a41.79 41.79 0 0 1-10.8 1.53c-.27 0-.4-.13-.4-.3a.37.37 0 0 1 .31-.36A62.14 62.14 0 0 0 195 11a44.56 44.56 0 0 0 5-2.72c.79-.53 1.5-1 1.5-1.28a1.73 1.73 0 0 0-.57-1 5.26 5.26 0 0 0-.62-.52.54.54 0 0 1-.26-.4c0-.13.08-.22.35-.31a8.47 8.47 0 0 1 1.6-.21A9.5 9.5 0 0 1 205.87 6c1.67 1 2.63 1.94 2.63 3 0 .74-.26 1-1.36 1.22a10.55 10.55 0 0 0-1.84.53 39.89 39.89 0 0 1-4.7 1.76 7.52 7.52 0 0 1 1.71.88c1.27.88 2 1.23 2 2.32a2.82 2.82 0 0 1-.22.93 3.94 3.94 0 0 0-.27 1v.52c.88-.13 1.84-.26 2.81-.44a3.29 3.29 0 0 0 2-.74 3.51 3.51 0 0 1 2-.66 11 11 0 0 1 3.47.83c1.58.62 2.5 1.36 2.5 2.51s-.62 1.62-1.93 1.62a24.83 24.83 0 0 1-3-.35 30.57 30.57 0 0 0-5.13-.09c-1 .05-2 .13-3 .27-.57 5.66-2.15 10.27-5.75 13.92-2.42 2.54-6.06 4.56-11.07 5.66a2.57 2.57 0 0 1-.57.09.29.29 0 0 1-.31-.26.36.36 0 0 1 .22-.31 22.43 22.43 0 0 0 8.61-7.38 23.1 23.1 0 0 0 3.82-11c-1.41.26-2.9.57-4.3.92a12.92 12.92 0 0 0-3 1.05c-.79.49-1.15.75-1.72.75A4.57 4.57 0 0 1 186.5 23c-.88-.79-2-2-2-2.77a4.47 4.47 0 0 1 .14-1c0-.27.17-.35.3-.35a.74.74 0 0 1 .4.17 6.72 6.72 0 0 0 1.62.92 4 4 0 0 0 1.63.36 25.29 25.29 0 0 0 3-.36c2.77-.48 5-.87 7.11-1.18.05-.79.05-1.63.05-2.46a3.36 3.36 0 0 0-.66-2.28 2.23 2.23 0 0 0-.66-.58c-.43.1-.87.18-1.31.32zm26.56 21.62a29.9 29.9 0 0 0-3.55.28c-.86.12-3.35.6-4.2.82a5.09 5.09 0 0 0-1.58.57 1.72 1.72 0 0 1-1 .4 3.19 3.19 0 0 1-1.86-.94c-.73-.61-1.15-1.16-1.15-1.58a1.88 1.88 0 0 1 .06-.61c.06-.24.15-.27.27-.27a.38.38 0 0 1 .25.09 4.73 4.73 0 0 0 .94.54 1.78 1.78 0 0 0 .91.25 11.74 11.74 0 0 0 1.82-.25c1.74-.3 3.62-.6 5.41-.85l.58-.09c.18-2.1.25-3.31.25-3.65v-1.18c0-.18 0-.18-.19-.18a2.39 2.39 0 0 0-.48.09c-.73.15-1.49.33-2.34.54a3.64 3.64 0 0 0-.89.37 3.11 3.11 0 0 1-.36.21 1.54 1.54 0 0 1-.64.15 2.63 2.63 0 0 1-1.58-.88 2.91 2.91 0 0 1-.88-1.4 1.46 1.46 0 0 1 .09-.6c.09-.25.15-.28.27-.28s.13 0 .25.12a3.07 3.07 0 0 0 .67.37 1.6 1.6 0 0 0 .88.24c.24 0 .7-.06 1.37-.15 1-.18 2-.36 2.94-.58a1.42 1.42 0 0 0 .92-.45.79.79 0 0 1 .69-.34 4.3 4.3 0 0 1 2 1c.85.63 1.4 1.24 1.4 1.82 0 .3-.09.49-.46.73s-.48.42-.64 1.15-.3 1.55-.54 2.62c.33 0 .6-.06.85-.06a1.36 1.36 0 0 0 .91-.25 1.85 1.85 0 0 1 1-.3 6.48 6.48 0 0 1 2.22.61c.91.42 1.22.76 1.22 1.43s-.31.88-1.07.88a10.57 10.57 0 0 1-1.76-.22 19.71 19.71 0 0 0-2.31-.18z"/><path d="M245 18.57c0-.35 0-.35-.4-.35a12.94 12.94 0 0 0-1.76.31c-1.66.39-4 1-5.7 1.54a10 10 0 0 0-3.12 1.36 2.72 2.72 0 0 1-1.85.79 4.53 4.53 0 0 1-2.85-1.5c-.88-.79-1.85-1.88-1.85-2.54a4.28 4.28 0 0 1 .05-1.06c0-.35.17-.48.35-.48a.5.5 0 0 1 .39.18 7.15 7.15 0 0 0 1.28.74 3.89 3.89 0 0 0 1.62.4 20 20 0 0 0 3.47-.53c2.72-.57 5.32-1.18 8-1.71 1.41-.35 1.54-.31 2.11-1a1.58 1.58 0 0 1 1.49-.79 8 8 0 0 1 3.38 1.54c1.45 1 2.95 2.15 2.95 3.25a1.39 1.39 0 0 1-.93 1.18c-1 .4-1.09.75-1.58 2.16a30.28 30.28 0 0 1-9.31 13.17 29.9 29.9 0 0 1-12 5.4 5.34 5.34 0 0 1-.88.13c-.26 0-.44-.13-.44-.3s.09-.31.35-.44a31.25 31.25 0 0 0 10.06-7.47 32.41 32.41 0 0 0 6.63-11.64 13.29 13.29 0 0 0 .54-2.34zM229.57 8.21c0-.31.13-.44.31-.44a.72.72 0 0 1 .35.13 11.62 11.62 0 0 0 1.27.7 3.93 3.93 0 0 0 1.71.36 18.37 18.37 0 0 0 2.68-.4c1.28-.26 3.25-.79 4.61-1.19a3.53 3.53 0 0 0 1.63-1c.44-.4.83-.44 1.71-.44a8.34 8.34 0 0 1 2.94.48c1.06.4 1.63 1.06 1.63 1.89 0 1.19-1 1.63-2.42 2-2.24.52-6 1.23-8.39 1.8a15.92 15.92 0 0 1-3.2.44 4.9 4.9 0 0 1-3.29-1.63 4.74 4.74 0 0 1-1.54-2.28zm29.64 9.44a1.12 1.12 0 0 0-.62-1.23c-.17-.13-.39-.31-.7-.53s-.31-.26-.31-.39.09-.22.31-.35a4.29 4.29 0 0 1 2-.53 7.45 7.45 0 0 1 3.34 1.54c1.23.88 2.11 1.93 2.11 2.9a1.68 1.68 0 0 1-.62 1.31 3.52 3.52 0 0 0-1.08 1.63 29.2 29.2 0 0 1-6.81 10.15 23.46 23.46 0 0 1-8.83 5.39 2.65 2.65 0 0 1-.61.18c-.27 0-.4-.13-.4-.31a.53.53 0 0 1 .18-.35 30.45 30.45 0 0 0 6.81-7 32.88 32.88 0 0 0 4.65-9.22 13.2 13.2 0 0 0 .58-3.19zM282 19.54a66.51 66.51 0 0 0 8-8.78.48.48 0 0 1 .31-.14.31.31 0 0 1 .31.31 2 2 0 0 1-.18.57 42.2 42.2 0 0 1-6.37 11.11 44.77 44.77 0 0 1-9 8.39c-1.31.83-1.45.83-1.75 1.49a1.45 1.45 0 0 1-1.45 1c-1 0-2.15-1-3.3-2.28s-2.06-2.5-2.06-3.12a1.85 1.85 0 0 1 .61-1.49c.31-.44.27-.53.31-1.76s.09-2.85.09-4.7c0-1.49-.05-3.11-.09-4.78s-.09-2.24-.66-2.68a6.64 6.64 0 0 0-1-.57c-.22-.09-.3-.22-.3-.35a.63.63 0 0 1 .35-.49 5.86 5.86 0 0 1 2.63-.88 6.11 6.11 0 0 1 3 1.32c1.18.79 2 1.58 2 2.42a1.72 1.72 0 0 1-.49 1.18c-.61.71-.65.88-.74 2.46-.18 2.81-.22 6.11-.22 7.29 0 .92 0 1 .39 1a4 4 0 0 0 1.54-.62 43 43 0 0 0 8.07-5.9zm13.34 7.03a3.08 3.08 0 1 1-3.07-3.08 3.08 3.08 0 0 1 3.07 3.08zm16.25-17.09c-.09-1.8-.13-2.24-1.06-2.72a7.83 7.83 0 0 0-1.31-.62c-.27-.08-.4-.22-.4-.35s.13-.3.35-.44A6.15 6.15 0 0 1 312 4.26a7.66 7.66 0 0 1 3.21 1c1.62 1 2.59 1.63 2.59 2.64a1.8 1.8 0 0 1-.31 1 3.63 3.63 0 0 0-.49 1.9c-.13 1.54-.22 3.12-.3 4.74 1-.13 2-.22 2.89-.3a2.35 2.35 0 0 0 1.94-.75 2.47 2.47 0 0 1 1.75-.57 12.31 12.31 0 0 1 4.09 1.18c1.31.62 2 1.28 2 2.42s-.52 1.54-1.67 1.54a17.61 17.61 0 0 1-3.29-.36 24.39 24.39 0 0 0-5.27-.26c-.7 0-1.62.09-2.63.18-.49 6-1.85 11.9-6.42 16.42a22 22 0 0 1-10.8 5.84 3.45 3.45 0 0 1-.7.13c-.22 0-.35-.13-.35-.26a.42.42 0 0 1 .26-.35 24.48 24.48 0 0 0 8.3-7.4 27.41 27.41 0 0 0 4.57-13.62c-1.71.31-3.38.71-4.79 1a5.72 5.72 0 0 0-2.15 1 2.71 2.71 0 0 1-1.71.66c-1 0-2-.79-3-1.63-1.19-1-2.15-2.24-2.15-2.94a5.77 5.77 0 0 1 .09-1.18c.08-.31.17-.44.35-.44a.72.72 0 0 1 .44.17 8.15 8.15 0 0 0 1.71 1 4.23 4.23 0 0 0 1.93.53 33.4 33.4 0 0 0 3.43-.4c2-.35 4-.66 6-1 .11-2.15.15-4.38.07-6.67zm37.5 9.09c0-.35 0-.35-.4-.35a12.94 12.94 0 0 0-1.76.31c-1.66.39-3.95 1-5.71 1.54a10.1 10.1 0 0 0-3.11 1.36 2.72 2.72 0 0 1-1.85.79 4.53 4.53 0 0 1-2.85-1.5c-.88-.79-1.85-1.88-1.85-2.54a4.28 4.28 0 0 1 .05-1.06c0-.35.17-.48.35-.48a.5.5 0 0 1 .39.18 7.15 7.15 0 0 0 1.28.74 3.89 3.89 0 0 0 1.62.4 20 20 0 0 0 3.47-.53c2.72-.57 5.32-1.18 7.95-1.71 1.41-.35 1.54-.31 2.11-1a1.58 1.58 0 0 1 1.49-.79 8 8 0 0 1 3.38 1.54c1.45 1 2.94 2.15 2.94 3.25a1.37 1.37 0 0 1-.92 1.18c-1 .4-1.09.75-1.58 2.16a30.28 30.28 0 0 1-9.31 13.17 29.9 29.9 0 0 1-12 5.4 5.34 5.34 0 0 1-.88.13c-.26 0-.44-.13-.44-.3s.09-.31.35-.44a31.25 31.25 0 0 0 10.06-7.47 32.41 32.41 0 0 0 6.63-11.64 13.29 13.29 0 0 0 .59-2.34zM333.63 8.21c0-.31.13-.44.31-.44a.72.72 0 0 1 .35.13 11.62 11.62 0 0 0 1.27.7 3.9 3.9 0 0 0 1.71.36 18.37 18.37 0 0 0 2.68-.4c1.27-.26 3.25-.79 4.61-1.19a3.53 3.53 0 0 0 1.63-1C346.63 6 347 6 347.9 6a8.34 8.34 0 0 1 2.94.48c1.06.4 1.63 1.06 1.63 1.89 0 1.19-1 1.63-2.42 2-2.24.52-6 1.23-8.39 1.8a16 16 0 0 1-3.2.44 4.9 4.9 0 0 1-3.29-1.63 4.74 4.74 0 0 1-1.54-2.28zm44.52 12.08c.88.79 1.54 1.44 1.54 2.45a3.53 3.53 0 0 1-.53 1.5c-.26.52-.7 1.31-.92 1.89a27.39 27.39 0 0 1-7.51 9.66 24.34 24.34 0 0 1-9.73 4.78 2.89 2.89 0 0 1-.7.14.4.4 0 0 1-.4-.36.45.45 0 0 1 .31-.39 25.13 25.13 0 0 0 7.69-6.59 28.89 28.89 0 0 0 5.1-8.69 9.92 9.92 0 0 0 .66-2.86 2.37 2.37 0 0 0-.35-1.58 3.08 3.08 0 0 0-.35-.39c-1.19.26-2.38.57-3.47.87a11.34 11.34 0 0 0-2.81 1.15 3.4 3.4 0 0 1-2.07.79 5.64 5.64 0 0 1-3.12-1.58c-1.14-1-2-2-2-2.77a7.47 7.47 0 0 1 .05-1c0-.26.17-.4.39-.4a.7.7 0 0 1 .44.18A8.26 8.26 0 0 0 362 18a4.22 4.22 0 0 0 1.93.44 22.29 22.29 0 0 0 3.2-.44c2.95-.57 5.45-1.06 7.91-1.5 2.19-.39 4.3-.74 6.5-1.09a3.06 3.06 0 0 0 1.89-.75 2.06 2.06 0 0 1 1.58-.48 12 12 0 0 1 3.86 1c1.27.57 2 1.18 2 2.15S390.27 19 389 19a19.27 19.27 0 0 1-2.86-.31 24.45 24.45 0 0 0-4.3-.13c-1.71.13-3.38.35-5.22.61a11.1 11.1 0 0 1 1.53 1.12zM364.41 7.86a.66.66 0 0 1 .35.13 8.53 8.53 0 0 0 1.45.79 5 5 0 0 0 1.71.31 16.47 16.47 0 0 0 2.85-.44 30.73 30.73 0 0 0 5.14-1.45 3.84 3.84 0 0 0 1.41-.88 2.25 2.25 0 0 1 1.68-.44 8.45 8.45 0 0 1 2.94.57 2.13 2.13 0 0 1 1.63 2c0 1.19-1.45 1.67-2.77 1.93-2.37.44-6.15 1.32-8.47 1.81a33.9 33.9 0 0 1-3.56.52 4.48 4.48 0 0 1-3.25-1.62c-.62-.62-1.45-1.54-1.45-2.29a3.13 3.13 0 0 1 0-.61c.12-.19.21-.33.34-.33zm27.76 22.21l-.95.85a21.75 21.75 0 0 1-7.05 4 1.69 1.69 0 0 1-.54.13.25.25 0 0 1-.28-.22.32.32 0 0 1 .15-.27c.28-.18.52-.37.79-.55a34.15 34.15 0 0 0 5.35-4.74 22.51 22.51 0 0 0 4-5.41 2 2 0 0 0 .24-.64c0-.15-.09-.27-.3-.45a4.57 4.57 0 0 0-.52-.34c-.12-.09-.18-.15-.18-.27a.39.39 0 0 1 .21-.28 3.94 3.94 0 0 1 1.21-.24 3.26 3.26 0 0 1 1.8.79c1.15.79 1.43 1.1 1.43 1.7 0 .34-.16.49-.58.7a1.63 1.63 0 0 0-.67.61c-.82 1.06-1.64 2-2.4 2.86a3.64 3.64 0 0 1 .42.3c.58.46.79.73.79 1a.79.79 0 0 1-.18.55c-.06.09-.06.18-.06.58 0 2.22.06 4.47.12 6.69v1.18c0 1.16-.45 1.7-1.36 1.7-.67 0-1-.27-1.43-1.12a5.21 5.21 0 0 1-.52-1.79 2.12 2.12 0 0 1 .24-1 2.9 2.9 0 0 0 .19-.88c.06-.73.09-4.16.09-5.44zm25.28-17.51c.88-.09.92-.18 1.62-1a1.76 1.76 0 0 1 1.23-.66c.84 0 2.15.79 3.43 1.71 1.58 1.1 2.5 2 2.5 2.9a1.33 1.33 0 0 1-.75 1.41c-.83.44-.92.57-1.23 1.67-2.1 6.54-5 11.72-9.31 15.63a27.78 27.78 0 0 1-12.82 6.54 2 2 0 0 1-.57.09c-.18 0-.31-.09-.31-.26a.57.57 0 0 1 .31-.4 36.7 36.7 0 0 0 10.28-8.65 33.06 33.06 0 0 0 6.54-13.3 14.94 14.94 0 0 0 .39-2.73c0-.44-.13-.44-1.14-.35a95.44 95.44 0 0 0-11.37 1.93c.26 2.55.61 4.88.7 7.12s-.48 2.68-2.06 2.68A2.43 2.43 0 0 1 403 26a4.08 4.08 0 0 1-1-2c-.13-1.27-.13-1.84-.17-2.94s-.22-3.3-.44-4.66a2.52 2.52 0 0 0-.75-1.89 5.34 5.34 0 0 0-1.05-.83c-.18-.13-.26-.22-.26-.35a.52.52 0 0 1 .35-.44 3 3 0 0 1 1.49-.44 8.58 8.58 0 0 1 3.21 1 4.58 4.58 0 0 1 1.23.79c.52 0 1.05-.13 1.58-.22.79-.13 1.62-.26 2.41-.35V9.15c-.05-1.45-.13-1.76-.53-2.15a3.47 3.47 0 0 0-1.27-.71c-.31-.09-.44-.22-.44-.39s.13-.31.39-.49a5.67 5.67 0 0 1 2.46-1 9.62 9.62 0 0 1 3.3 1c1.23.66 2.15 1.1 2.15 2.16a1.54 1.54 0 0 1-.44 1.18c-.48.35-.57.53-.7 1.54-.09.53-.09 1.45-.14 2.72 1.05-.19 2.1-.32 3.07-.45zm9.17-6.46a3 3 0 0 1 1.67 2.46 1.87 1.87 0 0 1-1.71 2c-.61 0-1.14-.27-1.67-1.19a9.24 9.24 0 0 0-3.47-3.73c-.22-.09-.3-.22-.3-.35s.13-.27.43-.27a9.61 9.61 0 0 1 5.05 1.08zm3.78-3.51a2.94 2.94 0 0 1 1.85 2.5 1.68 1.68 0 0 1-1.54 1.85c-.57 0-1-.18-1.71-1.19a8.91 8.91 0 0 0-3.65-3.21c-.22-.08-.31-.22-.31-.35s.14-.22.4-.26a9.61 9.61 0 0 1 4.96.66z"/></g></svg>