<svg xmlns="http://www.w3.org/2000/svg" viewBox="0 0 857.82 83.66"><title>culnarra-logo</title><g id="Layer_2" data-name="Layer 2"><g id="レイヤー_1" data-name="レイヤー 1"><path d="M49.62,14.68a124.43,124.43,0,0,1-7.89,13.11c5.78-.27,7.25-.46,9.36-.64V35.4a147.28,147.28,0,0,0-15-.55,78.3,78.3,0,0,1-7.8,7.71h7c3.12,0,7.34-.09,10.37-.37-.28,4.31-.28,11.65-.28,13.3V67.78a115,115,0,0,0,.92,15.14H37.51c.1-1.84.1-2.21.19-6.06H20c.09,2.3.09,3.3.36,6.06H11.83c.64-8.81.64-11.38.64-15v-14a40.17,40.17,0,0,1-7,3.4l-5.5-7c8.16-3.22,15.68-6.52,25.41-15.51H18.53a149.5,149.5,0,0,0-15.87.55V27.15c6.42.73,15.32.73,15.87.73h2.93V19H18.34a84.74,84.74,0,0,0-11,.55V11.28a85.35,85.35,0,0,0,11,.83h3.12V10.46c0-6.06,0-6.7-.09-10.09l9.36.73c1.1.09,2,.09,2,1.19,0,.92-.27,1-3,1.93,0,1.83-.09,4.31-.09,6.05v1.84a92.14,92.14,0,0,0,10.64-.83v3.85a56.38,56.38,0,0,0,3.39-7.79L51.91,12c.55.36.92.64.92,1.19C52.83,14.58,51.36,14.58,49.62,14.68ZM37.7,49.53H20v6.79H37.7Zm0,13.3H20v7.06H37.7ZM29.63,19v8.89h2.2A77.13,77.13,0,0,0,38,19.26C35.4,19.08,31.37,19,29.63,19ZM78.51,72.28c-3.21,1.37-7.7,1.37-10.36,1.37l-4.22-9.9a28.37,28.37,0,0,0,7.34,1c2.2,0,6.51,0,6.51-7.52,0-8.62-5.69-13.85-13.85-21.46,4.31-8.25,7.7-15.22,11.28-23.75H62.55V57.23c0,4.68.28,15.51,1.1,25.69H54.12c.64-8.44.82-18.81.82-25V30.63c0-7.42,0-18.71-.55-26.13a74.3,74.3,0,0,0,9.26.36H70.9A91.86,91.86,0,0,0,82,4.13l4.13,4A221,221,0,0,1,73.38,34.58C77.14,38,86.13,46.14,86.13,58.33,86.13,62.1,84.93,69.52,78.51,72.28Z"/><path d="M143.55,22.2H134V32h6.6c6.42,0,15.78-.37,22.11-.73-.19,2.66-.46,10.18-.46,12.93V62.28l.09,2.57c.37,9.63-5,11.55-13.21,11.55a12.55,12.55,0,0,1-3.21-.27l-4.49-9.26c1.83.27,6.78.91,8.53.91,2.66,0,3.48-.64,3.48-4.77V40H134V62.1c0,2.65.46,13.94.73,21.55H124.19c.46-5.32.74-8.53.83-11.19.09-3,.27-7.8.27-9.81V40H107V56.87c0,2.84.27,7.43.46,10.82.09,1.83.27,5.23.55,8.44H97.41c.55-5.51.92-13.3.92-15.32V44.94c0-2.11-.37-11.46-.46-13.39,4.68.19,15.32.46,20.09.46h7.33V22.2h-8.43c-9.27,0-18.53.18-27.8.73v-9c9.54.64,23.58.74,27.8.74h8.25C125,11,124.83,5,124.65,0l11.47,1.1c.73.09,1.56.28,1.56,1.19a1.19,1.19,0,0,1-.46,1A29.64,29.64,0,0,1,134.74,5c-.18,1.56-.37,8.35-.37,9.73h9.18c9.35,0,18.8-.1,28.15-.74v9C159.51,22.2,144.65,22.2,143.55,22.2Z"/><path d="M180.8,39.94a28,28,0,0,1,19.67-8.14,23.8,23.8,0,0,1,15.08,5,27,27,0,0,1,9.78,21c0,6.21-2.05,11.28-7.06,14.9-4.83,3.44-12.67,5.67-24.19,6.16-.43,0-.61-.19-.61-.37s.12-.42.49-.48c6.75-1.57,12.48-4.1,16.53-7.48,4.52-3.74,6.75-9.05,6.75-15.32S215,42.9,211.21,39a15.17,15.17,0,0,0-11-4.83c-.6,0-1.21.06-1.81.12a13.48,13.48,0,0,1,2.41,2.84,9.15,9.15,0,0,1,1.51,5.43,33.07,33.07,0,0,1-.66,5.18c-1.69,8.51-5.43,16.41-8.75,20.52-3.14,3.86-6.76,6-10,6-2.59,0-4.52-.66-5.61-4.28a20.09,20.09,0,0,0-1.87-4.41c-1.75-2.83-3.44-4.94-3.44-8.26C172,50.8,175.73,44.77,180.8,39.94ZM179,64.38a3.78,3.78,0,0,0,3.5,1.81c2,0,4.16-1.45,6.46-4.35,3.38-4.16,7-11.52,8.63-18.46a24.18,24.18,0,0,0,.66-4.28,8.63,8.63,0,0,0-.48-2.9,11.29,11.29,0,0,0-.85-1.63c-4.46,1-8.63,3.92-12,8.09-4.16,5.12-7,11.16-7,17.25A7.8,7.8,0,0,0,179,64.38Z"/><path d="M253.63,21.43a52.31,52.31,0,0,0,.43-5.4,2.47,2.47,0,0,0-1.57-2.61A21.13,21.13,0,0,0,250,12.37c-.53-.17-.79-.43-.79-.78a1.49,1.49,0,0,1,.7-1.05,8.22,8.22,0,0,1,4.7-2c1.49,0,4.36,1,7,2.26,2.87,1.49,4.44,2.79,4.44,4.71a2.62,2.62,0,0,1-.7,1.74c-.69.61-1.13,2.18-1.48,3.49-.61,2.79-1.13,5.49-1.74,8.1,2.7-.43,5.4-.78,8.36-1.22,1.57-.26,1.66-.17,3.23-1.83a3.55,3.55,0,0,1,2.44-1c1.39,0,4.09,1.56,6.62,3.39,3.14,2.1,5.32,4.45,5.32,6.28a3.7,3.7,0,0,1-1.66,2.79c-2.09,1.3-2.09,1.83-2.35,5.31a124.19,124.19,0,0,1-3.57,19.26c-.88,3.4-2.44,7-5.15,9.06-2.09,1.83-4.53,3.23-7.23,3.23-2.87,0-5.14-1.31-5.75-4.71a10,10,0,0,0-2.27-5.4,42.33,42.33,0,0,0-4.88-5.14.9.9,0,0,1-.34-.7c0-.43.43-.7,1-.43,2.44,1,5.15,2.09,7.15,2.87a23.84,23.84,0,0,0,4.88,1.14c1.48,0,2.35-1.57,3.22-4.1,2.1-4.71,2.71-11.16,3.4-18,.18-2,.26-4.1.26-5.66,0-1,0-1.22-1.13-1.22a56.49,56.49,0,0,0-5.92.87c-2.1.35-4.45.87-7.15,1.39-3,10.89-6.62,20.13-12.46,28.15-6.28,8.71-14.82,16.29-25.36,20.13a6.89,6.89,0,0,1-1.48.44.58.58,0,0,1-.61-.53.93.93,0,0,1,.43-.78A74.12,74.12,0,0,0,241.08,59.6a92.87,92.87,0,0,0,9.32-22.31c-1,.18-1.83.44-2.61.62a22.49,22.49,0,0,0-5.14,1.91c-1.49.87-1.83,1.48-3.4,1.48-1.92,0-3.84-1.57-5.84-3.66-1.48-1.48-3-3.83-3-5.4a8,8,0,0,1,.35-2.18c.17-.52.43-.69.69-.69a1.26,1.26,0,0,1,.88.34,18.33,18.33,0,0,0,3.05,2.09,5.31,5.31,0,0,0,3,.79,48.8,48.8,0,0,0,6.71-1c2.35-.44,4.7-.78,7.06-1.13C252.58,27.62,253.19,24.66,253.63,21.43Z"/><path d="M304.08,35a2.23,2.23,0,0,0-1.22-2.44c-.35-.26-.79-.61-1.4-1.05-.43-.26-.61-.52-.61-.78s.18-.44.61-.7a8.62,8.62,0,0,1,3.92-1c1.57,0,4.1,1.3,6.63,3.05s4.18,3.83,4.18,5.75A3.35,3.35,0,0,1,315,40.43a6.85,6.85,0,0,0-2.09,3.31,57.62,57.62,0,0,1-13.51,20.13,46.66,46.66,0,0,1-17.6,10.63,5.15,5.15,0,0,1-1.22.35c-.52,0-.79-.26-.79-.61a1,1,0,0,1,.35-.69A60.14,60.14,0,0,0,293.62,59.6a65.74,65.74,0,0,0,9.24-18.3A26.41,26.41,0,0,0,304.08,35Zm45.14,3.75a133,133,0,0,0,16-17.43.93.93,0,0,1,.61-.26.59.59,0,0,1,.61.61,3.87,3.87,0,0,1-.35,1.13,84.41,84.41,0,0,1-12.63,22.05,89.27,89.27,0,0,1-17.87,16.64c-2.61,1.66-2.87,1.66-3.48,3a2.89,2.89,0,0,1-2.88,2c-2,0-4.27-1.92-6.53-4.53-2.1-2.44-4.1-5-4.1-6.19a3.7,3.7,0,0,1,1.22-3c.61-.88.52-1.05.61-3.49s.17-5.66.17-9.32c0-3-.08-6.19-.17-9.5s-.17-4.45-1.31-5.32a16.17,16.17,0,0,0-2-1.13c-.44-.17-.61-.44-.61-.7a1.23,1.23,0,0,1,.7-1,11.57,11.57,0,0,1,5.22-1.74c1.66,0,3.58,1.05,5.93,2.61s4,3.14,4,4.8a3.5,3.5,0,0,1-1,2.35c-1.22,1.39-1.31,1.74-1.48,4.88-.35,5.58-.44,12.11-.44,14.47,0,1.83,0,1.91.79,1.91a7.79,7.79,0,0,0,3.05-1.22C339.2,47.4,344.51,42.87,349.22,38.78Z"/><path d="M389.21,27.36a82.72,82.72,0,0,1-21.44,3.05c-.52,0-.78-.26-.78-.61a.72.72,0,0,1,.61-.7A122.35,122.35,0,0,0,387,21.87a88.9,88.9,0,0,0,9.93-5.4c1.57-1,3-2,3-2.53a3.27,3.27,0,0,0-1.13-2,8.44,8.44,0,0,0-1.22-1,1,1,0,0,1-.52-.78c0-.27.17-.44.69-.61a16,16,0,0,1,3.23-.44c1.57,0,4.53,1,7.67,2.88,3.31,1.91,5.23,3.83,5.23,5.83,0,1.49-.53,2.1-2.71,2.44a19.75,19.75,0,0,0-3.66,1.05,78.87,78.87,0,0,1-9.32,3.49,15.29,15.29,0,0,1,3.4,1.74c2.53,1.74,3.92,2.44,3.92,4.62a5.35,5.35,0,0,1-.44,1.83,7.74,7.74,0,0,0-.52,2c0,.35-.09.7-.09,1.05,1.75-.26,3.66-.53,5.58-.87,2.27-.35,2.62-.53,3.92-1.49a7.15,7.15,0,0,1,4-1.3A21.58,21.58,0,0,1,424.77,34c3.13,1.22,5,2.7,5,5s-1.22,3.22-3.83,3.22a50.19,50.19,0,0,1-5.84-.69,62.62,62.62,0,0,0-10.2-.18c-1.91.09-3.92.26-5.92.53-1.13,11.24-4.27,20.39-11.42,27.62-4.79,5-12,9.06-22,11.24a5.71,5.71,0,0,1-1.13.18.59.59,0,0,1-.61-.53.7.7,0,0,1,.44-.61c8.27-4.44,13.24-9,17.08-14.64C390.78,58.3,393,52,393.92,43.22c-2.79.52-5.75,1.13-8.54,1.83a25.69,25.69,0,0,0-6,2.09c-1.56,1-2.26,1.48-3.39,1.48-2.18,0-4-1.3-5.84-3s-3.92-3.92-3.92-5.49a8.84,8.84,0,0,1,.26-2.09c.09-.52.35-.7.61-.7a1.59,1.59,0,0,1,.78.35,14.42,14.42,0,0,0,3.23,1.83,7.82,7.82,0,0,0,3.22.7,50.84,50.84,0,0,0,6-.7c5.49-1,9.94-1.74,14.12-2.35.09-1.57.09-3.23.09-4.88a6.68,6.68,0,0,0-1.31-4.53,4.24,4.24,0,0,0-1.31-1.14C391,26.92,390.08,27.1,389.21,27.36Z"/><path d="M441.94,70.27a63.46,63.46,0,0,0-7.06.55c-1.69.24-6.64,1.2-8.33,1.63a10.16,10.16,0,0,0-3.13,1.14,3.49,3.49,0,0,1-2,.79c-1,0-2.18-.61-3.69-1.87s-2.29-2.3-2.29-3.14a3.79,3.79,0,0,1,.12-1.21c.12-.48.31-.54.55-.54a.68.68,0,0,1,.48.18,10.06,10.06,0,0,0,1.87,1.09,3.66,3.66,0,0,0,1.81.48,25.09,25.09,0,0,0,3.62-.48c3.44-.61,7.18-1.21,10.74-1.69l1.14-.18c.37-4.17.49-6.58.49-7.24V57.42c0-.36,0-.36-.36-.36a4.73,4.73,0,0,0-1,.18c-1.45.3-3,.67-4.65,1.09a6.28,6.28,0,0,0-1.74.72,7.86,7.86,0,0,1-.73.43,3,3,0,0,1-1.27.3A5.23,5.23,0,0,1,423.42,58a5.91,5.91,0,0,1-1.75-2.78,3,3,0,0,1,.18-1.21c.18-.48.3-.54.54-.54s.24.06.48.24a7.32,7.32,0,0,0,1.33.73A3.24,3.24,0,0,0,426,55c.48,0,1.39-.12,2.72-.3,2.05-.36,3.92-.73,5.85-1.15a2.78,2.78,0,0,0,1.81-.9,1.6,1.6,0,0,1,1.39-.67,8.63,8.63,0,0,1,4,2c1.69,1.27,2.77,2.48,2.77,3.62,0,.61-.18,1-.9,1.45s-1,.85-1.27,2.3-.6,3.07-1.09,5.18c.67-.06,1.21-.12,1.69-.12a2.82,2.82,0,0,0,1.81-.48,3.69,3.69,0,0,1,1.94-.6,13.22,13.22,0,0,1,4.4,1.2c1.81.85,2.41,1.51,2.41,2.84s-.6,1.75-2.11,1.75a22.49,22.49,0,0,1-3.5-.42,39.42,39.42,0,0,0-4.58-.37Z"/><path d="M486.27,36.86c0-.7,0-.7-.78-.7a24.8,24.8,0,0,0-3.49.61c-3.31.79-7.84,1.92-11.33,3-1.13.35-4.7,1.4-6.19,2.7a5.27,5.27,0,0,1-3.66,1.57c-2,0-3.83-1.3-5.66-3s-3.66-3.75-3.66-5.05a8.37,8.37,0,0,1,.09-2.1c.09-.69.35-1,.7-1a1.06,1.06,0,0,1,.78.35,13.89,13.89,0,0,0,2.53,1.48,7.78,7.78,0,0,0,3.22.79,38.5,38.5,0,0,0,6.89-1c5.4-1.13,10.54-2.35,15.77-3.4,2.79-.69,3-.61,4.18-1.91a3.15,3.15,0,0,1,3-1.57c1.48,0,4.27,1.39,6.71,3.05,2.88,1.92,5.84,4.27,5.84,6.45a2.78,2.78,0,0,1-1.83,2.35c-2,.78-2.18,1.48-3.13,4.27A60.28,60.28,0,0,1,477.73,70a59.46,59.46,0,0,1-23.88,10.72,11.42,11.42,0,0,1-1.74.26c-.52,0-.87-.26-.87-.61s.17-.61.7-.87a62.32,62.32,0,0,0,19.95-14.81,64.5,64.5,0,0,0,13.16-23.1A26.44,26.44,0,0,0,486.27,36.86ZM455.6,16.29c.08-.61.26-.87.61-.87a1.42,1.42,0,0,1,.69.26,27.22,27.22,0,0,0,2.53,1.4,8,8,0,0,0,3.4.69,37,37,0,0,0,5.31-.78c2.53-.52,6.45-1.57,9.16-2.35a7.09,7.09,0,0,0,3.22-1.92c.87-.78,1.66-.87,3.4-.87a16.72,16.72,0,0,1,5.84,1c2.09.78,3.22,2.09,3.22,3.74,0,2.36-1.92,3.23-4.79,3.93-4.45,1-11.85,2.44-16.65,3.57a30.66,30.66,0,0,1-6.36.87c-2.53,0-4.88-1.57-6.53-3.22s-3-3.49-3-4.53Z"/><path d="M514.41,35c0-1.48-.17-1.66-1.22-2.44-.34-.26-.78-.61-1.39-1.05-.44-.26-.61-.52-.61-.78s.17-.44.61-.7a8.62,8.62,0,0,1,3.92-1c1.57,0,4.1,1.3,6.62,3.05s4.19,3.83,4.19,5.75a3.35,3.35,0,0,1-1.22,2.61,6.78,6.78,0,0,0-2.09,3.31,57.62,57.62,0,0,1-13.51,20.13,46.66,46.66,0,0,1-17.6,10.63,5.29,5.29,0,0,1-1.22.35c-.53,0-.79-.26-.79-.61a1,1,0,0,1,.35-.69A60.14,60.14,0,0,0,504,59.6a65.72,65.72,0,0,0,9.23-18.3A26.41,26.41,0,0,0,514.41,35Zm45.15,3.75a133,133,0,0,0,16-17.43.89.89,0,0,1,.61-.26.59.59,0,0,1,.61.61,4.21,4.21,0,0,1-.35,1.13,84.43,84.43,0,0,1-12.64,22.05A89,89,0,0,1,546,61.52c-2.61,1.66-2.88,1.66-3.48,3a2.89,2.89,0,0,1-2.88,2c-2,0-4.27-1.92-6.54-4.53C531,59.52,529,57,529,55.77a3.7,3.7,0,0,1,1.22-3c.61-.88.52-1.05.61-3.49S531,43.66,531,40c0-3-.09-6.19-.17-9.5s-.18-4.45-1.31-5.32a16.93,16.93,0,0,0-2-1.13c-.44-.17-.61-.44-.61-.7a1.24,1.24,0,0,1,.69-1,11.61,11.61,0,0,1,5.23-1.74c1.66,0,3.57,1.05,5.93,2.61s4,3.14,4,4.8a3.5,3.5,0,0,1-1,2.35c-1.22,1.39-1.31,1.74-1.48,4.88-.35,5.58-.44,12.11-.44,14.47,0,1.83,0,1.91.78,1.91a7.68,7.68,0,0,0,3.05-1.22C549.53,47.4,554.85,42.87,559.56,38.78Z"/><path d="M586.13,52.72a6.1,6.1,0,1,1-6.1-6.1A6.12,6.12,0,0,1,586.13,52.72Z"/><path d="M618.37,18.82c-.17-3.57-.26-4.44-2.09-5.4a14.74,14.74,0,0,0-2.62-1.22c-.52-.18-.78-.44-.78-.7a1.24,1.24,0,0,1,.7-.87,12,12,0,0,1,5.57-2.18,15.29,15.29,0,0,1,6.37,2.09c3.22,1.92,5.14,3.23,5.14,5.23a3.65,3.65,0,0,1-.61,2c-.35.61-.7,1.23-.87,3.66-.27,3.05-.44,6.19-.62,9.42,2-.27,3.93-.44,5.76-.61,2.35-.18,2.7-.44,3.83-1.49a5,5,0,0,1,3.49-1.13,24.55,24.55,0,0,1,8.1,2.35c2.61,1.22,3.92,2.53,3.92,4.8,0,2-1,3-3.31,3a35.72,35.72,0,0,1-6.54-.7,47.92,47.92,0,0,0-10.45-.52c-1.4.08-3.23.17-5.23.35-1,11.93-3.66,23.61-12.72,32.59A44,44,0,0,1,594,81.13a8.69,8.69,0,0,1-1.39.26c-.44,0-.7-.26-.7-.52a.8.8,0,0,1,.52-.7c7.32-3.92,12.11-8.89,16.47-14.73,5.4-7.58,8.19-17,9.06-27-3.39.61-6.71,1.39-9.49,2a11.27,11.27,0,0,0-4.27,1.92,5.41,5.41,0,0,1-3.4,1.31c-2,0-3.92-1.57-5.93-3.23-2.35-2-4.27-4.44-4.27-5.84a11.54,11.54,0,0,1,.18-2.35c.17-.61.34-.87.69-.87a1.4,1.4,0,0,1,.87.35,18,18,0,0,0,3.4,2,8.42,8.42,0,0,0,3.84,1.05,67.57,67.57,0,0,0,6.79-.79c4-.69,7.93-1.3,11.94-1.91C618.46,27.8,618.54,23.35,618.37,18.82Z"/><path d="M692.79,36.86c0-.7,0-.7-.79-.7a25,25,0,0,0-3.48.61c-3.31.79-7.85,1.92-11.33,3-1.13.35-4.71,1.4-6.19,2.7a5.31,5.31,0,0,1-3.66,1.57c-2,0-3.83-1.3-5.66-3S658,37.38,658,36.08a8.85,8.85,0,0,1,.08-2.1c.09-.69.35-1,.7-1a1.1,1.1,0,0,1,.79.35,13.54,13.54,0,0,0,2.52,1.48,7.82,7.82,0,0,0,3.23.79,38.41,38.41,0,0,0,6.88-1c5.4-1.13,10.55-2.35,15.77-3.4,2.79-.69,3-.61,4.19-1.91a3.15,3.15,0,0,1,3-1.57c1.48,0,4.27,1.39,6.71,3.05,2.88,1.92,5.84,4.27,5.84,6.45a2.8,2.8,0,0,1-1.83,2.35c-2,.78-2.18,1.48-3.14,4.27A60.18,60.18,0,0,1,684.25,70a59.53,59.53,0,0,1-23.88,10.72,11.8,11.8,0,0,1-1.74.26c-.53,0-.87-.26-.87-.61a1,1,0,0,1,.69-.87,62.25,62.25,0,0,0,20-14.81,64.65,64.65,0,0,0,13.16-23.1A27.33,27.33,0,0,0,692.79,36.86ZM662.11,16.29c.09-.61.26-.87.61-.87a1.41,1.41,0,0,1,.7.26,27.22,27.22,0,0,0,2.53,1.4,8,8,0,0,0,3.4.69,37,37,0,0,0,5.31-.78c2.53-.52,6.45-1.57,9.15-2.35A7,7,0,0,0,687,12.72c.88-.78,1.66-.87,3.4-.87a16.72,16.72,0,0,1,5.84,1c2.09.78,3.23,2.09,3.23,3.74,0,2.36-1.92,3.23-4.8,3.93-4.44,1-11.85,2.44-16.64,3.57a30.66,30.66,0,0,1-6.36.87c-2.53,0-4.88-1.57-6.54-3.22s-3-3.49-3-4.53Z"/><path d="M750.47,40.26c1.74,1.57,3,2.87,3,4.88a7.18,7.18,0,0,1-1,3c-.53,1-1.4,2.61-1.83,3.75A54.28,54.28,0,0,1,735.74,71a48.64,48.64,0,0,1-19.34,9.5,7.11,7.11,0,0,1-1.4.26.77.77,0,0,1-.78-.7.87.87,0,0,1,.61-.78,49.83,49.83,0,0,0,15.25-13.07A57.53,57.53,0,0,0,740.19,49a19.69,19.69,0,0,0,1.31-5.66,4.68,4.68,0,0,0-.7-3.14,6.15,6.15,0,0,0-.7-.78c-2.35.52-4.7,1.13-6.88,1.74a23.19,23.19,0,0,0-5.58,2.26,6.68,6.68,0,0,1-4.1,1.57c-1.91,0-4.27-1.48-6.18-3.13-2.27-1.92-4-4-4-5.49a16.34,16.34,0,0,1,.09-2q.12-.78.78-.78a1.36,1.36,0,0,1,.87.35,15.9,15.9,0,0,0,3.4,1.74,8.32,8.32,0,0,0,3.83.87,42.59,42.59,0,0,0,6.37-.87c5.83-1.13,10.8-2.09,15.68-3,4.36-.79,8.54-1.49,12.9-2.18,2.26-.44,2.61-.53,3.75-1.48a4.05,4.05,0,0,1,3.13-1,23.86,23.86,0,0,1,7.67,2c2.53,1.13,3.92,2.36,3.92,4.27,0,2.18-1.22,3.31-3.74,3.31a37.74,37.74,0,0,1-5.67-.61,49.3,49.3,0,0,0-8.54-.26c-3.4.26-6.71.7-10.37,1.22A21.21,21.21,0,0,1,750.47,40.26ZM723.2,15.6a1.32,1.32,0,0,1,.69.26,16.84,16.84,0,0,0,2.88,1.57,10.16,10.16,0,0,0,3.4.61,32.52,32.52,0,0,0,5.66-.87A63.3,63.3,0,0,0,746,14.29a7.78,7.78,0,0,0,2.79-1.74c.95-.88,2-.88,3.39-.88a16.94,16.94,0,0,1,5.84,1.14c2.27.87,3.23,2.26,3.23,4,0,2.35-2.88,3.31-5.49,3.83-4.71.87-12.2,2.61-16.82,3.57a62.21,62.21,0,0,1-7.06,1.05c-2.88,0-4.62-1.48-6.45-3.23-1.22-1.21-2.87-3-2.87-4.53a6.31,6.31,0,0,1,.08-1.22C722.76,15.77,722.93,15.6,723.2,15.6Z"/><path d="M778.3,59.67l-1.87,1.69a43.56,43.56,0,0,1-14,8,4,4,0,0,1-1.09.24.48.48,0,0,1-.54-.42.63.63,0,0,1,.3-.54c.54-.36,1-.72,1.57-1.09a69.79,69.79,0,0,0,10.62-9.41,44.88,44.88,0,0,0,7.84-10.74,3.72,3.72,0,0,0,.48-1.26c0-.31-.18-.55-.6-.91a7.14,7.14,0,0,0-1-.66c-.24-.18-.36-.3-.36-.55a.72.72,0,0,1,.43-.54,7.82,7.82,0,0,1,2.41-.48c1,0,1.87.42,3.56,1.57,2.29,1.57,2.83,2.17,2.83,3.37,0,.67-.3,1-1.14,1.39a3.14,3.14,0,0,0-1.33,1.21c-1.63,2.11-3.26,4-4.77,5.67a6.59,6.59,0,0,1,.85.6c1.14.91,1.57,1.45,1.57,2a1.57,1.57,0,0,1-.36,1.08c-.13.18-.13.36-.13,1.15,0,4.4.13,8.87.25,13.27.06,1,.06,1.81.06,2.35,0,2.3-.91,3.38-2.72,3.38-1.33,0-2-.54-2.83-2.23a10.38,10.38,0,0,1-1-3.56,4.12,4.12,0,0,1,.48-1.87,5.94,5.94,0,0,0,.36-1.75c.13-1.45.19-8.27.19-10.8Z"/><path d="M828.45,24.92c1.75-.17,1.83-.35,3.23-1.92a3.53,3.53,0,0,1,2.44-1.3c1.65,0,4.27,1.56,6.8,3.39,3.13,2.18,5,3.93,5,5.76,0,1.39-.35,2.26-1.48,2.78-1.65.88-1.83,1.14-2.44,3.32-4.18,13-9.93,23.26-18.47,31-6.71,6.19-15.08,10.54-25.45,13a4.31,4.31,0,0,1-1.13.18c-.35,0-.61-.18-.61-.53a1.11,1.11,0,0,1,.61-.78A72.87,72.87,0,0,0,817.3,62.65a65.14,65.14,0,0,0,13-26.4,29.46,29.46,0,0,0,.79-5.4c0-.88-.26-.88-2.27-.7A186,186,0,0,0,806.23,34c.53,5.06,1.22,9.68,1.4,14.12.08,4.27-1,5.32-4.1,5.32a4.86,4.86,0,0,1-3.83-1.92,7.94,7.94,0,0,1-2-4c-.26-2.53-.26-3.66-.35-5.84-.08-1.92-.43-6.53-.87-9.23-.26-2.1-.43-2.71-1.48-3.75A10.89,10.89,0,0,0,792.9,27c-.35-.26-.52-.43-.52-.7s.17-.6.69-.87a6,6,0,0,1,3-.87c1.74,0,3.92.87,6.36,2a9.34,9.34,0,0,1,2.44,1.56c1-.08,2.09-.26,3.14-.43,1.56-.26,3.22-.52,4.79-.7,0-2.35.09-5.49-.09-9-.09-2.88-.26-3.49-1-4.27a7.17,7.17,0,0,0-2.53-1.4c-.61-.17-.87-.43-.87-.78s.26-.61.78-1c1.48-1.05,3.66-2.09,4.88-2.09a18.89,18.89,0,0,1,6.54,2.09c2.44,1.31,4.27,2.18,4.27,4.27a3.1,3.1,0,0,1-.87,2.35c-1,.7-1.14,1.05-1.4,3.05-.17,1.05-.17,2.88-.26,5.41Q825.59,25.31,828.45,24.92Zm18.22-12.81C848.67,13.33,850,15,850,17a3.71,3.71,0,0,1-3.4,3.92c-1.22,0-2.27-.52-3.31-2.35a18.43,18.43,0,0,0-6.89-7.41c-.43-.17-.61-.43-.61-.69s.27-.53.88-.53A19,19,0,0,1,846.67,12.11Zm7.49-7c2.27,1.13,3.66,3,3.66,5s-1.31,3.66-3.05,3.66c-1.13,0-2-.35-3.4-2.36a17.48,17.48,0,0,0-7.23-6.36c-.44-.17-.61-.43-.61-.7s.26-.43.78-.52C848.93,3.48,851.9,4.09,854.16,5.14Z"/></g></g></svg>